<svg width="34" height="34" fill="none" xmlns="http://www.w3.org/2000/svg">
    <path d="M11.796 27.246c1.68-1.087 2.984-2.682 3.527-4.864h-.936c-.587 1.586-1.742 2.578-3.203 3.113a14.778 14.778 0 0 1-.57-4.105c0-3.062.92-5.908 2.504-8.289h-1.934a16.244 16.244 0 0 0-2.95 7.21c-1.076-.663-1.925-1.509-2.423-2.889H4.787c.586 2.14 1.724 3.614 3.273 4.77 0 .164-.01.328-.01.491 0 4.183 1.585 8.004 4.193 10.91h4.62a15.3 15.3 0 0 1-5.067-6.347z" fill="#9B947A"/>
    <path d="M17.222 13.843h7.7v-7.59h-7.7v7.59zm5.89-1.785h-4.079v-4.02h4.078v4.02zM12.689 23.227h8.156v-8.039h-8.156v8.039zm6.345-1.794H14.5v-4.468h4.533v4.468z" fill="#BAB7B1"/>
    <path d="M9.512 13.843h6.345V7.59H9.512v6.253zm4.989-1.337h-3.623v-3.57H14.5v3.57z" fill="#9B947A"/>
    <path d="M3.168 8.935h4.988V4.02H3.168v4.916zM6.8 7.59H4.533V5.356H6.8V7.59z" fill="#BAB7B1"/>
    <path d="M9.512 6.253h6.345V0H9.512v6.253zm4.989-1.337h-3.623v-3.58H14.5v3.58zM0 18.31h8.156v-8.038H0v8.039zm6.344-1.785H1.811v-4.467h4.533v4.467z" fill="#85B940"/>
</svg>